<svg xmlns="http://www.w3.org/2000/svg" xmlns:svg="http://www.w3.org/2000/svg" id="mdi-tools" width="48" height="48" version="1.1" viewBox="0 0 48 48"><metadata id="metadata1684"/><path id="path1677" d="m 40.467883,38.234366 -2.422047,2.42205 c -0.665273,0.661327 -1.739716,0.661327 -2.40499,0 L 15.377507,20.427189 c -0.554664,0.160689 -1.128271,0.246729 -1.705669,0.25585 -4.6814264,-0.0033 -7.9688911,-4.61275 -6.4474257,-9.040041 l 4.3323977,4.332397 0.904005,-0.904005 2.422048,-2.422048 0.904005,-0.904005 -4.332398,-4.3323971 c 4.427291,-1.5214653 9.036699,1.7659987 9.040042,6.4474271 -0.0091,0.577397 -0.09516,1.151004 -0.255851,1.705667 l 20.229222,20.263339 c 0.66133,0.665273 0.66133,1.73972 0,2.404993 M 7.3438089,35.829373 c -0.6613276,0.665273 -0.6613276,1.73972 0,2.404993 l 2.422049,2.42205 c 0.6652751,0.661327 1.7397181,0.661327 2.4049931,0 l 9.330005,-9.31295 -4.827042,-4.827041 z M 37.551193,7.0376926 30.728521,10.449029 v 3.411338 l -3.701301,3.701299 3.411337,3.411336 3.701299,-3.7013 h 3.411337 l 3.411337,-6.822673 z" style="fill:none;stroke:#000;stroke-width:1.8;stroke-miterlimit:4;stroke-dasharray:none;stroke-opacity:1"/></svg>