<svg xmlns="http://www.w3.org/2000/svg" xmlns:svg="http://www.w3.org/2000/svg" id="svg4" width="48" height="48" enable-background="new 0 0 24 24" version="1.1" viewBox="0 0 48 48" xml:space="preserve"><metadata id="metadata10"/><path id="path1054" d="M 24,14.666667 C 29.333333,9.3333336 31.333333,9.3333336 38,9.3333336 M 24,37.333333 C 28.614032,33.333333 31.333333,32 38,32 m 0,0 V 9.3333336 M 24,14.666667 c 0.171488,5.812943 0,22.666666 0,22.666666" style="fill:none;stroke:#000;stroke-width:2;stroke-linecap:round;stroke-linejoin:round;stroke-opacity:1"/><path id="path1054-7" d="M 39.28119,13.08902 C 40.12712,13.0283 41.028743,13 42,13 M 26.166666,39.833333 C 30.7807,35.833333 35.333333,36 42,36 m 0,0 V 13" style="fill:none;stroke:#000;stroke-width:2;stroke-linecap:round;stroke-linejoin:round;stroke-opacity:1"/><path id="path1099" d="M 24,14.666667 C 18.666666,9.3333336 16.666666,9.3333336 9.9999999,9.3333336 M 24,37.333333 C 19.385967,33.333333 16.666666,32 9.9999999,32 m 0,0 V 9.3333336 M 24,14.666667 c -0.171488,5.812943 0,22.666666 0,22.666666" style="fill:none;stroke:#000;stroke-width:2;stroke-linecap:round;stroke-linejoin:round;stroke-opacity:1"/><path style="fill:none;stroke:#000;stroke-width:2;stroke-linecap:butt;stroke-linejoin:miter;stroke-opacity:1" id="path1107" d="m 21.833333,39.833333 c 1.219957,0.572627 3.058176,0.68452 4.333333,0"/><path id="path7038" d="M 8.718809,13.08902 C 7.872879,13.0283 6.971256,13 5.999999,13 M 21.833333,39.833333 C 17.219299,35.833333 12.666666,36 5.999999,36 m 0,0 V 13" style="fill:none;stroke:#000;stroke-width:2;stroke-linecap:round;stroke-linejoin:round;stroke-opacity:1"/></svg>