<svg xmlns="http://www.w3.org/2000/svg" xmlns:svg="http://www.w3.org/2000/svg" id="svg84" width="48" height="48" fill-rule="evenodd" stroke-linejoin="round" stroke-width="28.222" preserveAspectRatio="xMidYMid" version="1.2" viewBox="0 0 1270 1270" xml:space="preserve"><metadata id="metadata88"/><g id="g849" transform="matrix(-0.33333334,0,0,-0.33333334,1330.9795,1212.6737)" style="stroke-width:158.75"><g id="g30314" transform="matrix(1,0,0,-1,1.0476624e-4,3624.7921)"><path style="fill:none;stroke:#000;stroke-width:158.75;stroke-linecap:butt;stroke-linejoin:bevel;stroke-opacity:1" id="path899" d="m 976.68856,939.271 2e-4,2063.7498"/><path style="fill:none;stroke:#000;stroke-width:158.75;stroke-linecap:butt;stroke-linejoin:bevel;stroke-opacity:1" id="path897" d="M 2764.0824,2792.8927 1411.4642,804.98771"/><path style="fill:none;stroke:#000;stroke-width:158.75;stroke-linecap:butt;stroke-linejoin:bevel;stroke-opacity:1" id="path151" d="m 3199.1883,621.77099 3e-4,2037.29171"/><path style="fill:none;stroke:#000;stroke-width:158.75;stroke-linecap:butt;stroke-linejoin:miter;stroke-opacity:1" id="path153" d="m 500.43846,2526.7712 476.2499,476.2499 476.25034,-476.2499"/><path style="fill:none;stroke:#000;stroke-width:158.75;stroke-linejoin:round" id="path873" d="M 808.32477,1413.7019 A 238.12497,238.12497 0 0 1 711.58517,1145.0814 238.12497,238.12497 0 0 1 942.16119,976.70617" transform="matrix(0,1,1,0,0,0)"/><path style="fill:none;stroke:#000;stroke-width:158.75;stroke-linejoin:round" id="path901" d="m -2788.9549,-2761.4645 a 238.12497,238.12497 0 0 1 -98.0548,-268.5736 238.12497,238.12497 0 0 1 230.5207,-169.1354" transform="matrix(0,-1,-1,0,0,0)"/></g></g></svg>