<svg xmlns="http://www.w3.org/2000/svg" xmlns:svg="http://www.w3.org/2000/svg" id="svg4" width="48" height="48" enable-background="new 0 0 24 24" version="1.1" viewBox="0 0 48 48" xml:space="preserve"><metadata id="metadata10"/><path style="fill:none;stroke:#000;stroke-width:2;stroke-linecap:square;stroke-linejoin:miter" id="path1274" d="m 16.612063,28.541486 a 12,12 0 0 1 14.775874,0 L 24,37.997615 Z"/><path style="fill:none;stroke:#000;stroke-width:2;stroke-linecap:square;stroke-linejoin:miter" id="path1278" d="m 12.541145,24 a 18.612266,18.612266 0 0 1 22.917711,0"/><path style="fill:none;stroke:#000;stroke-width:2;stroke-linecap:square;stroke-linejoin:miter;stroke-opacity:1" id="path1280" d="m 9.0139959,19.172796 a 24.341306,24.414154 0 0 1 29.9720071,10e-7"/><path style="fill:none;stroke:#999;stroke-width:2;stroke-linecap:square;stroke-linejoin:miter" id="path1282" d="m 5.3333343,14.443941 a 30.319692,30.410431 0 0 1 37.3333317,10e-7"/><rect style="fill:none;stroke:#000;stroke-width:2;stroke-linecap:square;stroke-linejoin:miter" id="rect1413" width="7" height="7" x="33" y="32" ry="1.167"/><path id="path1421" d="m 33.928548,32.644226 v -1.990323 c 0,-1.465633 1.119289,-2.653764 2.500001,-2.653764 1.380711,0 2.499999,1.188131 2.499999,2.653764 v 1.990323" style="fill:none;stroke:#000;stroke-width:2;stroke-linecap:butt;stroke-linejoin:miter;stroke-opacity:1"/></svg>